<svg width="24" height="24" viewBox="0 0 24 24" fill="none" xmlns="http://www.w3.org/2000/svg">
<path d="M10.8776 0.0267773C6.8014 0.420982 3.15721 2.88945 1.31163 6.51237C0.658871 7.79353 0.273789 9.02776 0.0624639 10.5154C-0.0314585 11.1724 -0.0173701 12.8806 0.0906406 13.6127C0.273789 14.9174 0.658871 16.1516 1.25058 17.3389C2.41992 19.6947 4.28897 21.5625 6.65112 22.7357C10.4785 24.6411 15.0055 24.3782 18.5746 22.0459C19.9693 21.1355 21.2936 19.7839 22.1953 18.3479C22.5428 17.8035 23.0594 16.7429 23.2942 16.1047C23.5337 15.457 23.8107 14.3401 23.9094 13.6127C24.0174 12.8759 24.0315 11.1677 23.9375 10.5154C23.6605 8.56786 23.0406 6.90657 22.0121 5.35791C21.5801 4.70091 21.1433 4.16592 20.5329 3.55115C18.6591 1.65991 16.3298 0.486683 13.6671 0.0924797C13.0942 0.00800705 11.4787 -0.0295372 10.8776 0.0267773ZM15.3389 6.0947C16.6492 6.4889 17.5884 7.45564 17.9218 8.75558C18.0204 9.1357 18.0204 14.8517 17.9218 15.2318C17.579 16.5693 16.5787 17.5688 15.2403 17.9114C14.8599 18.01 9.14006 18.01 8.75968 17.9114C7.44946 17.5735 6.46797 16.6162 6.09228 15.3069C6.02184 15.0488 6.01245 14.7296 6.01245 11.9937C6.01245 8.68518 6.00775 8.77904 6.29421 8.12203C6.74035 7.12245 7.74532 6.28711 8.75968 6.08531C8.90056 6.05716 9.06023 6.02431 9.11189 6.01492C9.16354 6.00554 10.5254 6.00084 12.1409 6.00554C14.7425 6.01492 15.1041 6.02431 15.3389 6.0947Z" fill="#EDF2F8"/>
<path d="M8.96158 7.27737C8.55771 7.39 8.23838 7.57772 7.90965 7.90622C7.57153 8.24411 7.38838 8.55384 7.28037 8.9762C7.17236 9.37979 7.17705 14.6124 7.28037 15.0207C7.39307 15.4477 7.61379 15.8138 7.94722 16.1235C8.28064 16.4379 8.5765 16.6069 8.98036 16.7101C9.38423 16.818 14.6204 16.8133 15.029 16.7101C15.4563 16.5975 15.8226 16.3769 16.1326 16.0437C16.4472 15.7105 16.6163 15.4149 16.7196 15.0113C16.8229 14.6124 16.8229 9.3751 16.7196 8.9762C16.6163 8.57261 16.4472 8.27696 16.1326 7.94376C15.8226 7.61057 15.4563 7.39 15.029 7.27737C14.6345 7.17882 9.33727 7.17882 8.96158 7.27737ZM15.3107 8.15025C15.569 8.21595 15.832 8.48814 15.879 8.73217C15.9494 9.1123 15.6582 9.56281 15.306 9.62851C14.9163 9.69891 14.5828 9.53466 14.4326 9.18738C14.2494 8.7791 14.4513 8.32389 14.8881 8.16902C15.1182 8.08924 15.0665 8.08924 15.3107 8.15025ZM12.6762 8.96682C13.5403 9.14984 14.3715 9.79746 14.7613 10.5906C15.0243 11.1256 15.1135 11.5573 15.0853 12.158C15.0477 12.9746 14.766 13.5893 14.1602 14.1994C13.5779 14.786 12.8359 15.0911 11.9953 15.0911C11.15 15.0911 10.4362 14.7907 9.81627 14.1759C9.20108 13.5612 8.90053 12.8478 8.90053 11.9937C8.90053 11.1396 9.20108 10.4263 9.81627 9.81154C10.5864 9.0419 11.6055 8.74156 12.6762 8.96682Z" fill="#EDF2F8"/>
<path d="M11.3284 10.2292C10.7884 10.4544 10.5113 10.7172 10.2718 11.2288C10.1591 11.4728 10.145 11.5573 10.145 11.9937C10.145 12.4489 10.1544 12.5099 10.2953 12.8009C10.4831 13.1951 10.7978 13.5095 11.2016 13.7019C11.4834 13.838 11.5445 13.8474 12 13.8474C12.4555 13.8474 12.5166 13.838 12.8077 13.6972C13.2069 13.5095 13.5168 13.1998 13.7047 12.8009C13.8456 12.5099 13.855 12.4489 13.855 11.9937C13.855 11.5385 13.8456 11.4775 13.7047 11.1865C13.5168 10.7876 13.2069 10.4779 12.8077 10.2902C12.5353 10.1588 12.4367 10.14 12.0469 10.1259C11.6619 10.1166 11.5632 10.1306 11.3284 10.2292Z" fill="#EDF2F8"/>
</svg>
