<svg width="64" height="64" viewBox="0 0 64 64" fill="none" xmlns="http://www.w3.org/2000/svg">
<path d="M29.007 0.0714073C18.1371 1.12262 8.41922 7.70519 3.49768 17.3663C1.75699 20.7827 0.730105 24.074 0.16657 28.0411C-0.0838893 29.7931 -0.0463204 34.3484 0.241708 36.3006C0.730105 39.7796 1.75699 43.0709 3.33489 46.2371C6.45311 52.5193 11.4373 57.5 17.7363 60.6286C27.9426 65.7095 40.0147 65.0087 49.5322 58.789C53.2515 56.3612 56.783 52.7571 59.1874 48.9277C60.1141 47.476 61.4916 44.6477 62.1178 42.9458C62.7565 41.2188 63.4953 38.2403 63.7583 36.3006C64.0463 34.3359 64.0839 29.7806 63.8334 28.0411C63.0946 22.8476 61.4415 18.4175 58.699 14.2878C57.5469 12.5358 56.3823 11.1091 54.7543 9.46973C49.7576 4.42642 43.5462 1.29782 36.4457 0.246609C34.9179 0.0213509 30.6099 -0.0787659 29.007 0.0714073ZM40.9038 16.2525C44.3978 17.3037 46.9024 19.8817 47.7915 23.3482C48.0545 24.3619 48.0545 39.6044 47.7915 40.6181C46.8773 44.1847 44.2099 46.8503 40.6409 47.7638C39.6265 48.0266 24.3735 48.0266 23.3591 47.7638C19.8652 46.8628 17.2479 44.3098 16.2461 40.8183C16.0582 40.13 16.0332 39.279 16.0332 31.9831C16.0332 23.1605 16.0207 23.4108 16.7846 21.6588C17.9743 18.9932 20.6542 16.7656 23.3591 16.2275C23.7348 16.1524 24.1606 16.0648 24.2984 16.0398C24.4361 16.0148 28.0678 16.0022 32.3757 16.0148C39.3134 16.0398 40.2777 16.0648 40.9038 16.2525Z" fill="black"/>
<path d="M23.8977 19.4062C22.8207 19.7065 21.9692 20.2071 21.0926 21.0831C20.1909 21.9841 19.7025 22.8101 19.4145 23.9364C19.1264 25.0126 19.139 38.9662 19.4145 40.0549C19.715 41.1937 20.3036 42.1699 21.1927 42.9958C22.0819 43.8343 22.8708 44.2848 23.9478 44.5601C25.0248 44.848 38.9879 44.8354 40.0774 44.5601C41.217 44.2598 42.1938 43.6716 43.0203 42.7831C43.8593 41.8946 44.3102 41.1061 44.5857 40.0299C44.8612 38.9662 44.8612 25.0001 44.5857 23.9364C44.3102 22.8601 43.8593 22.0717 43.0203 21.1832C42.1938 20.2947 41.217 19.7065 40.0774 19.4062C39.0255 19.1434 24.8995 19.1434 23.8977 19.4062ZM40.8288 21.7338C41.5175 21.909 42.2188 22.6349 42.3441 23.2856C42.5319 24.2993 41.7555 25.5007 40.8163 25.6759C39.7768 25.8636 38.8877 25.4256 38.487 24.4995C37.9986 23.4108 38.5371 22.1969 39.7017 21.7839C40.3153 21.5712 40.1776 21.5712 40.8288 21.7338ZM33.8034 23.9114C36.1076 24.3994 38.3242 26.1264 39.3636 28.2413C40.0649 29.668 40.3028 30.8193 40.2277 32.4211C40.1275 34.5987 39.3761 36.238 37.7607 37.8649C36.2078 39.4292 34.2292 40.2427 31.9876 40.2427C29.7334 40.2427 27.8299 39.4417 26.1769 37.8023C24.5364 36.163 23.7349 34.2608 23.7349 31.9831C23.7349 29.7055 24.5364 27.8033 26.1769 26.1639C28.2307 24.1116 30.9481 23.3107 33.8034 23.9114Z" fill="black"/>
<path d="M30.2095 27.2777C28.7694 27.8784 28.0305 28.5792 27.3918 29.9433C27.0913 30.594 27.0537 30.8193 27.0537 31.9831C27.0537 33.197 27.0788 33.3597 27.4544 34.1356C27.9554 35.1868 28.7944 36.0253 29.8714 36.5384C30.6228 36.9013 30.7856 36.9263 32.0003 36.9263C33.215 36.9263 33.3778 36.9013 34.1542 36.5259C35.2187 36.0253 36.0452 35.1993 36.5461 34.1356C36.9218 33.3597 36.9469 33.197 36.9469 31.9831C36.9469 30.7692 36.9218 30.6066 36.5461 29.8307C36.0452 28.7669 35.2187 27.941 34.1542 27.4404C33.4279 27.09 33.1649 27.0399 32.1255 27.0024C31.0986 26.9774 30.8357 27.0149 30.2095 27.2777Z" fill="black"/>
</svg>
