<svg width="25" height="25" viewBox="0 0 25 25" fill="none" xmlns="http://www.w3.org/2000/svg">
<path d="M6.52678 1.10543C2.64138 3.11633 0.410876 6.63541 0.0511164 11.4472C-0.524498 19.2754 3.79261 24.3744 11.4195 24.949C19.2623 25.5235 24.3708 21.2144 24.9465 13.6017C25.3062 8.5745 23.8672 5.05542 20.1976 2.25452C17.0318 -0.18729 10.1963 -0.761833 6.52678 1.10543ZM18.183 3.47542C21.4208 5.62996 22.9318 8.50268 22.9318 12.5245C22.9318 18.8445 18.8306 22.9381 12.4988 22.9381C8.46948 22.9381 5.59141 21.4299 3.43285 18.1981C1.63406 15.3972 1.63406 9.65176 3.43285 6.85087C5.59141 3.61906 8.46948 2.11088 12.4988 2.11088C14.8012 2.11088 16.8159 2.61361 18.183 3.47542Z" fill="black"/>
<path d="M11.4195 8.86167C6.23898 10.6571 5.44751 12.0935 9.0451 13.0271C10.8439 13.5298 11.4915 14.1762 11.9951 15.9716C12.9305 19.6344 14.3695 18.7007 16.2403 13.3144C17.1037 10.5135 17.8952 7.99986 17.8952 7.71259C17.8952 6.85077 16.6 7.06622 11.4195 8.86167Z" fill="black"/>
</svg>
