<svg width="24" height="24" viewBox="0 0 24 24" fill="none" xmlns="http://www.w3.org/2000/svg">
<path d="M10.8588 0.0301056C7.85012 0.340105 5.1747 1.68814 3.11886 3.9239C0.218147 7.07557 -0.753451 11.6457 0.603031 15.7603C1.21791 17.625 2.1895 19.1844 3.6117 20.5841C5.49857 22.4394 7.7891 23.5526 10.5302 23.9424C11.0888 24.0223 12.9334 24.0176 13.5107 23.9377C16.2612 23.5573 18.6316 22.383 20.5372 20.4526C22.4335 18.5315 23.5459 16.2535 23.9402 13.4822C24.0199 12.928 24.0199 11.0774 23.9402 10.5232C23.7149 8.94027 23.2549 7.51239 22.5555 6.2489C22.0063 5.24845 21.368 4.39359 20.5372 3.55284C18.6691 1.65996 16.3457 0.485712 13.675 0.0911655C13.0977 0.00662041 11.4314 -0.0309563 10.8588 0.0301056ZM17.6177 7.27754C17.8242 7.36678 17.9228 7.56405 17.9228 7.89284C17.9228 8.19345 15.9374 17.625 15.8341 17.8316C15.6839 18.1229 15.3601 18.2309 15.0315 18.1088C14.9188 18.0665 13.8346 17.2821 12.2481 16.1032L11.8539 15.8119L11.0043 16.6245C10.38 17.2163 10.1078 17.4512 9.99514 17.4747C9.91066 17.4935 9.83086 17.4982 9.82148 17.4841C9.80739 17.47 9.84025 16.7889 9.89657 15.9622L9.99514 14.4686L10.3284 14.1633C10.5068 13.9942 11.7788 12.8435 13.1493 11.6035C14.5246 10.3588 15.6464 9.31603 15.6464 9.27845C15.6464 9.22678 15.5947 9.208 15.4821 9.21269C15.346 9.21739 14.6513 9.63542 11.8351 11.4062C9.92474 12.6133 8.33357 13.5997 8.30541 13.5997C8.17868 13.5997 5.21695 12.6462 5.07614 12.5616C4.77574 12.3738 4.84145 12.0966 5.23103 11.8759C5.33429 11.8195 6.08059 11.5142 6.8926 11.2042C7.70461 10.8895 9.23946 10.2977 10.2955 9.88906C11.3563 9.48042 13.2432 8.75239 14.4964 8.2686C17.2422 7.20708 17.2141 7.21648 17.3502 7.21178C17.4065 7.21178 17.5285 7.23996 17.6177 7.27754Z" fill="#EDF2F8"/>
</svg>
