<svg width="64" height="64" viewBox="0 0 64 64" fill="none" xmlns="http://www.w3.org/2000/svg">
<path d="M28.9568 0.0802765C20.9336 0.906944 13.7992 4.5017 8.31696 10.4637C0.581725 18.8682 -2.0092 31.0553 1.60808 42.0274C3.24775 46.9999 5.83868 51.1583 9.6312 54.8909C14.6629 59.8383 20.7709 62.8068 28.0806 63.8464C29.5701 64.0594 34.4891 64.0468 36.0286 63.8339C43.3633 62.8194 49.6842 59.688 54.7659 54.5402C59.8226 49.4173 62.789 43.3426 63.8404 35.9527C64.0532 34.4747 64.0532 29.5397 63.8404 28.0617C63.2396 23.8407 62.013 20.033 60.148 16.6637C58.6836 13.9959 56.9813 11.7163 54.7659 9.47423C49.7843 4.42654 43.5886 1.29523 36.4667 0.243103C34.9272 0.0176506 30.4838 -0.08255 28.9568 0.0802765ZM46.9806 19.4068C47.5313 19.6448 47.7942 20.1708 47.7942 21.0476C47.7942 21.8492 42.4997 46.9999 42.2243 47.5511C41.8238 48.3276 40.9601 48.6157 40.084 48.29C39.7836 48.1773 36.8923 46.0856 32.6617 42.9418L31.6103 42.1652L29.3448 44.3321C27.6801 45.9102 26.9541 46.5365 26.6537 46.5991C26.4284 46.6492 26.2156 46.6618 26.1906 46.6242C26.1531 46.5866 26.2407 44.7704 26.3909 42.566L26.6537 38.583L27.5424 37.7688C28.018 37.3179 31.41 34.2492 35.0648 30.9425C38.7322 27.6233 41.7237 24.8427 41.7237 24.7425C41.7237 24.6048 41.586 24.5547 41.2856 24.5672C40.9226 24.5797 39.0701 25.6945 31.5602 30.4165C26.466 33.6355 22.2229 36.2658 22.1478 36.2658C21.8098 36.2658 13.9119 33.7232 13.5364 33.4977C12.7353 32.9967 12.9105 32.2577 13.9494 31.669C14.2248 31.5187 16.2149 30.7046 18.3803 29.8779C20.5456 29.0387 24.6385 27.4605 27.4548 26.3708C30.2835 25.2811 35.3152 23.3397 38.6571 22.0496C45.9793 19.2189 45.9042 19.2439 46.2672 19.2314C46.4174 19.2314 46.7428 19.3066 46.9806 19.4068Z" fill="black"/>
</svg>
