<svg width="40" height="40" viewBox="0 0 40 40" fill="none" xmlns="http://www.w3.org/2000/svg">
<path d="M10.4429 1.76869C4.22621 4.98613 0.657401 10.6167 0.0817863 18.3155C-0.839198 30.8406 6.06818 38.9991 18.2712 39.9184C30.8196 40.8376 38.9934 33.9431 39.9143 21.7628C40.49 13.7192 38.1875 8.08867 32.3162 3.60723C27.2508 -0.299664 16.3141 -1.21893 10.4429 1.76869ZM29.0928 5.56068C34.2733 9.00794 36.6909 13.6043 36.6909 20.0392C36.6909 30.1511 30.1289 36.7009 19.9981 36.7009C13.5512 36.7009 8.94626 34.2878 5.49257 29.117C2.61449 24.6355 2.61449 15.4428 5.49257 10.9614C8.94626 5.7905 13.5512 3.37741 19.9981 3.37741C23.682 3.37741 26.9054 4.18177 29.0928 5.56068Z" fill="#EDF2F8"/>
<path d="M18.2712 14.1787C9.98237 17.0514 8.71602 19.3496 14.4722 20.8434C17.3502 21.6477 18.3863 22.6819 19.1922 25.5546C20.6888 31.415 22.9913 29.9212 25.9845 21.303C27.3659 16.8216 28.6323 12.7998 28.6323 12.3401C28.6323 10.9612 26.5601 11.306 18.2712 14.1787Z" fill="#EDF2F8"/>
</svg>
