<svg width="24" height="24" viewBox="0 0 24 24" fill="none" xmlns="http://www.w3.org/2000/svg">
<path d="M10.8853 0.0267773C4.59625 0.636856 -0.195668 6.04777 0.00614618 12.3222C0.0671598 14.1477 0.461402 15.7292 1.26397 17.3389C2.43261 19.6947 4.30057 21.5625 6.66133 22.7357C10.4864 24.6411 15.0108 24.3782 18.5778 22.0459C19.9717 21.1355 21.2952 19.7839 22.1963 18.3479C22.5436 17.8035 23.0599 16.7429 23.2946 16.1047C23.5339 15.457 23.8109 14.3401 23.9094 13.6127C24.0174 12.8759 24.0314 11.1677 23.9376 10.5154C23.6607 8.56786 23.0411 6.90657 22.0133 5.35791C21.5815 4.70091 21.145 4.16592 20.5349 3.55115C18.6622 1.65991 16.3343 0.486683 13.6732 0.0924797C13.1006 0.00800705 11.4861 -0.0295372 10.8853 0.0267773ZM12.7204 8.95268C13.0584 9.10285 13.0631 9.13101 13.0631 10.5858C13.0631 12.0218 13.0818 12.1345 13.3259 12.1345C13.6169 12.1345 14.5227 10.8345 14.9404 9.81617C15.161 9.28587 15.1892 9.23895 15.3581 9.17794C15.5365 9.11693 17.5171 9.11693 17.7423 9.17794C18.2445 9.31872 18.0662 9.79271 16.9398 11.3367C16.1325 12.4489 16.0199 12.6366 16.0668 12.829C16.0809 12.89 16.4141 13.2748 16.8084 13.6784C17.7048 14.5982 18.0146 15.0112 18.0146 15.2975C18.0146 15.3632 17.9535 15.4852 17.8784 15.5697L17.7423 15.7245H16.5972H15.4567L15.2032 15.5837C15.039 15.4899 14.7668 15.2506 14.4288 14.8892C14.1425 14.5842 13.8422 14.2932 13.7624 14.2463C13.5653 14.1196 13.3869 14.1243 13.3024 14.2604C13.2273 14.3683 13.1194 14.8047 13.0631 15.2036C13.0396 15.3679 12.9927 15.4758 12.8988 15.5697C12.7674 15.7011 12.7627 15.7011 12.1385 15.7011C10.9417 15.6964 10.2142 15.443 9.27083 14.6827C8.71232 14.2369 7.96608 13.2514 7.2433 12.0218C6.91007 11.454 6.05588 9.69885 6.01364 9.50644C5.99956 9.41258 6.01364 9.32342 6.06527 9.24833L6.14506 9.12632L7.19637 9.14039C8.17259 9.15447 8.25707 9.15917 8.3791 9.25302C8.4495 9.30465 8.54806 9.42197 8.5903 9.51113C8.63254 9.6003 8.7968 9.93349 8.95168 10.2573C9.44918 11.2897 10.1297 12.2096 10.3691 12.172C10.5146 12.1532 10.5803 12.0031 10.6507 11.5666C10.7211 11.1161 10.6695 9.92411 10.5709 9.7317C10.4958 9.58622 10.2517 9.41258 10.125 9.41258C9.97484 9.41258 9.9326 9.29526 10.0405 9.15917C10.2564 8.88698 10.4348 8.85413 11.6081 8.86821C12.345 8.87759 12.5843 8.89636 12.7204 8.95268Z" fill="#EDF2F8"/>
</svg>
