<svg width="64" height="64" viewBox="0 0 64 64" fill="none" xmlns="http://www.w3.org/2000/svg">
<path d="M29.0276 0.0714073C12.2567 1.69828 -0.521782 16.1274 0.0163898 32.8592C0.179093 37.7273 1.2304 41.9446 3.37058 46.2371C6.48696 52.5193 11.4682 57.5 17.7635 60.6286C27.9638 65.7095 40.0288 65.0087 49.5407 58.789C53.2578 56.3612 56.7872 52.7571 59.1902 48.9277C60.1164 47.476 61.4931 44.6477 62.1189 42.9458C62.7572 41.2188 63.4956 38.2403 63.7584 36.3006C64.0463 34.3359 64.0838 29.7806 63.8335 28.0411C63.0951 22.8476 61.443 18.4175 58.7021 14.2878C57.5507 12.5358 56.3867 11.1091 54.7597 9.46973C49.766 4.42642 43.5582 1.29782 36.4619 0.246609C34.935 0.0213509 30.6296 -0.0787659 29.0276 0.0714073ZM33.9212 23.8738C34.8223 24.2743 34.8348 24.3494 34.8348 28.2288C34.8348 32.0582 34.8849 32.3586 35.5357 32.3586C36.3117 32.3586 38.7272 28.8921 39.8411 26.1765C40.4293 24.7623 40.5044 24.6372 40.955 24.4745C41.4306 24.3118 46.7122 24.3118 47.3129 24.4745C48.6521 24.8499 48.1765 26.1139 45.1727 30.2311C43.0201 33.197 42.7197 33.6976 42.8448 34.2107C42.8824 34.3734 43.771 35.3996 44.8223 36.4758C47.2128 38.9286 48.0388 40.0299 48.0388 40.7933C48.0388 40.9685 47.8761 41.2939 47.6759 41.5191L47.3129 41.9321H44.2591H41.2178L40.542 41.5567C40.1039 41.3064 39.378 40.6681 38.4769 39.7045C37.7134 38.8911 36.9124 38.1152 36.6997 37.9901C36.174 37.6522 35.6984 37.6647 35.4731 38.0276C35.2729 38.3154 34.985 39.4793 34.8348 40.543C34.7723 40.981 34.6471 41.2688 34.3968 41.5191C34.0464 41.8695 34.0338 41.8695 32.3693 41.8695C29.1778 41.857 27.2379 41.1812 24.7222 39.1539C23.2329 37.965 21.2429 35.337 19.3155 32.0582C18.4269 30.544 16.149 25.8636 16.0364 25.3505C15.9988 25.1002 16.0364 24.8624 16.1741 24.6622L16.3868 24.3368L19.1903 24.3744C21.7936 24.4119 22.0188 24.4244 22.3443 24.6747C22.532 24.8124 22.7948 25.1252 22.9075 25.363C23.0201 25.6008 23.4581 26.4893 23.8712 27.3528C25.1978 30.106 27.0126 32.5588 27.6509 32.4587C28.0389 32.4086 28.2141 32.0082 28.4018 30.8443C28.5895 29.6429 28.4519 26.4643 28.189 25.9512C27.9888 25.5633 27.338 25.1002 27.0001 25.1002C26.5996 25.1002 26.4869 24.7874 26.7748 24.4244C27.3505 23.6986 27.8261 23.611 30.955 23.6485C32.92 23.6736 33.5582 23.7236 33.9212 23.8738Z" fill="black"/>
</svg>
